<?xml version="1.0" encoding="utf-8"?>
<svg version="1.0" xmlns="http://www.w3.org/2000/svg" width="237.8px" height="237.8px" viewBox="0 0 237.8 237.8" preserveAspectRatio="xMidYMid meet">
  <g transform="matrix(0.1, 0, 0, -0.1, -17726.177734, -4561.931641)" fill="#000000" stroke="none" style="transform-origin: 17638.9px 4502.66px 0px;">
    <path d="M19595 3886 c-100 -46 -137 -116 -133 -250 3 -102 -11 -139 -65 -180 -25 -18 -42 -21 -135 -21 -99 0 -110 -2 -155 -28 -170 -100 -163 -340 13 -430 52 -27 60 -28 143 -22 77 5 92 3 120 -14 43 -27 547 -534 548 -552 1 -8 2 -69 3 -137 1 -108 -1 -128 -19 -160 -35 -63 -69 -75 -215 -75 -150 0 -181 12 -217 81 -18 36 -20 54 -16 121 7 95 -5 134 -57 194 -49 55 -106 80 -186 80 -67 0 -111 -18 -162 -67 -54 -50 -76 -101 -76 -176 0 -73 17 -115 68 -168 57 -62 137 -86 226 -70 44 8 58 6 95 -12 27 -13 53 -36 67 -58 20 -33 23 -47 20 -128 -4 -133 32 -204 133 -257 51 -27 154 -28 206 -3 103 49 163 165 139 269 -12 56 1 99 43 145 37 39 87 54 144 43 109 -21 220 35 270 138 23 48 23 154 0 202 -51 104 -159 159 -273 138 -35 -6 -61 -6 -80 1 -32 12 -548 521 -568 560 -8 17 -12 67 -11 153 2 139 8 156 69 201 24 18 43 21 162 22 122 1 139 -1 166 -20 64 -43 73 -67 70 -173 -3 -86 -1 -101 23 -148 87 -179 345 -179 437 -1 28 52 30 165 5 212 -27 51 -67 93 -111 117 -34 18 -58 22 -146 22 -95 0 -108 2 -139 24 -49 36 -73 96 -62 157 11 59 -1 133 -28 178 -66 106 -202 146 -316 92z" style="fill: rgb(240, 78, 37);"/>
    <path d="M18689 2956 c-153 -54 -219 -208 -150 -345 26 -50 90 -104 140 -119 99 -30 190 -5 257 71 69 79 83 175 38 265 -32 64 -83 108 -148 127 -60 18 -89 18 -137 1z" style="fill: rgb(38, 139, 203);"/>
    <path d="M20572 2956 c-125 -41 -197 -175 -162 -301 16 -56 81 -132 135 -156 48 -22 142 -25 189 -5 83 35 156 138 156 222 0 165 -165 290 -318 240z" style="fill: rgb(38, 139, 203);"/>
  </g>
</svg>