<?xml version="1.0" standalone="no"?>
<!DOCTYPE svg PUBLIC "-//W3C//DTD SVG 20010904//EN" "http://www.w3.org/TR/2001/REC-SVG-20010904/DTD/svg10.dtd">
<svg version="1.0" xmlns="http://www.w3.org/2000/svg" width="2090.000000pt" height="392.000000pt"
    viewBox="0 0 2090.000000 392.000000" preserveAspectRatio="xMidYMid meet">

    <g transform="translate(0.000000,392.000000) scale(0.100000,-0.100000)" fill="#000000" stroke="none">
        <path d="M19595 3886 c-100 -46 -137 -116 -133 -250 3 -102 -11 -139 -65 -180
-25 -18 -42 -21 -135 -21 -99 0 -110 -2 -155 -28 -170 -100 -163 -340 13 -430
52 -27 60 -28 143 -22 77 5 92 3 120 -14 43 -27 547 -534 548 -552 1 -8 2 -69
3 -137 1 -108 -1 -128 -19 -160 -35 -63 -69 -75 -215 -75 -150 0 -181 12 -217
81 -18 36 -20 54 -16 121 7 95 -5 134 -57 194 -49 55 -106 80 -186 80 -67 0
-111 -18 -162 -67 -54 -50 -76 -101 -76 -176 0 -73 17 -115 68 -168 57 -62
137 -86 226 -70 44 8 58 6 95 -12 27 -13 53 -36 67 -58 20 -33 23 -47 20 -128
-4 -133 32 -204 133 -257 51 -27 154 -28 206 -3 103 49 163 165 139 269 -12
56 1 99 43 145 37 39 87 54 144 43 109 -21 220 35 270 138 23 48 23 154 0 202
-51 104 -159 159 -273 138 -35 -6 -61 -6 -80 1 -32 12 -548 521 -568 560 -8
17 -12 67 -11 153 2 139 8 156 69 201 24 18 43 21 162 22 122 1 139 -1 166
-20 64 -43 73 -67 70 -173 -3 -86 -1 -101 23 -148 87 -179 345 -179 437 -1 28
52 30 165 5 212 -27 51 -67 93 -111 117 -34 18 -58 22 -146 22 -95 0 -108 2
-139 24 -49 36 -73 96 -62 157 11 59 -1 133 -28 178 -66 106 -202 146 -316 92z" />
        <path d="M18689 2956 c-153 -54 -219 -208 -150 -345 26 -50 90 -104 140 -119
99 -30 190 -5 257 71 69 79 83 175 38 265 -32 64 -83 108 -148 127 -60 18 -89
18 -137 1z" />
        <path d="M20572 2956 c-125 -41 -197 -175 -162 -301 16 -56 81 -132 135 -156
48 -22 142 -25 189 -5 83 35 156 138 156 222 0 165 -165 290 -318 240z" />
        <path d="M2138 2523 c-99 -16 -139 -179 -64 -260 26 -29 40 -35 86 -39 102
-10 160 47 160 156 0 58 -23 110 -57 128 -24 13 -91 21 -125 15z" />
        <path d="M17347 2462 c-16 -17 -17 -96 -17 -934 0 -1055 -12 -948 107 -948
102 0 103 1 103 189 0 118 4 160 16 184 19 40 276 251 309 255 31 4 26 10 303
-320 128 -153 246 -285 262 -293 40 -21 270 -22 270 -1 0 8 -142 181 -315 386
-173 205 -315 380 -315 391 0 23 -3 21 329 294 154 127 282 236 285 243 7 17
-275 17 -307 0 -12 -6 -197 -158 -411 -337 -213 -179 -396 -326 -405 -326 -15
0 -16 52 -19 599 -2 540 -4 601 -19 618 -24 26 -153 26 -176 0z" />
        <path d="M6145 2447 c-14 -21 -15 -129 -13 -936 3 -1054 -11 -941 118 -941 52
0 82 5 98 16 l22 15 0 919 c0 822 -2 920 -16 934 -12 12 -37 16 -104 16 -83 0
-91 -2 -105 -23z" />
        <path d="M22 2358 c-9 -9 -12 -218 -12 -879 0 -775 2 -869 16 -883 12 -12 37
-16 103 -16 127 0 121 -11 121 250 0 196 2 217 21 254 30 60 399 376 438 376
26 0 56 -37 334 -417 167 -230 315 -427 327 -438 19 -18 39 -20 166 -23 142
-3 144 -3 144 18 0 13 -153 227 -368 518 -203 273 -372 506 -375 516 -5 11 -1
28 8 42 8 12 180 166 382 340 361 312 383 331 383 347 0 4 -73 7 -162 7 -143
0 -167 -2 -193 -19 -16 -11 -264 -222 -549 -470 -300 -261 -526 -451 -535
-449 -14 3 -17 55 -21 458 -3 250 -9 461 -13 468 -11 16 -198 17 -215 0z" />
        <path d="M12154 2362 c-33 -22 -34 -47 -34 -889 0 -656 3 -843 13 -863 l13
-25 544 0 c536 0 546 0 623 23 259 75 387 236 387 487 0 189 -81 329 -238 413
-40 21 -62 39 -62 51 0 10 26 35 60 60 109 77 169 207 156 337 -20 194 -112
305 -298 358 -167 48 -272 56 -731 56 -232 0 -427 -4 -433 -8z m916 -262 c187
-18 267 -65 289 -167 30 -142 -57 -251 -224 -282 -35 -7 -195 -11 -394 -11
-297 0 -336 2 -353 17 -16 15 -18 35 -18 215 0 185 1 199 20 218 19 19 33 20
303 20 155 0 325 -5 377 -10z m148 -745 c89 -20 165 -65 199 -117 25 -38 28
-50 28 -133 0 -83 -2 -95 -28 -134 -33 -50 -70 -74 -157 -103 -62 -21 -86 -22
-458 -26 -362 -3 -395 -2 -413 14 -18 16 -19 34 -19 250 0 198 2 235 16 248
23 23 731 24 832 1z" />
        <path d="M14555 1965 c-251 -47 -448 -210 -531 -440 -69 -191 -46 -449 58
-623 182 -308 630 -412 981 -230 43 23 103 63 132 90 79 72 85 68 85 -50 0
-127 4 -132 121 -132 53 0 90 5 97 12 17 17 17 1329 0 1346 -8 8 -45 12 -99
12 -110 0 -119 -7 -119 -95 0 -35 -5 -67 -10 -70 -6 -4 -38 15 -73 41 -170
129 -415 182 -642 139z m385 -251 c172 -51 284 -155 330 -303 63 -202 -30
-425 -217 -519 -103 -52 -166 -66 -298 -66 -142 -1 -226 21 -320 82 -117 76
-185 175 -207 302 -41 238 127 460 390 515 83 18 246 12 322 -11z" />
        <path d="M3230 1955 c-256 -57 -460 -226 -535 -442 -104 -301 -12 -616 231
-789 284 -203 726 -201 1071 4 35 20 63 43 63 50 0 7 -18 48 -40 92 -48 96
-55 98 -163 40 -131 -71 -174 -82 -342 -87 -129 -4 -162 -2 -239 16 -108 26
-213 79 -264 135 -48 52 -114 163 -110 185 3 14 61 16 594 21 503 4 594 7 609
20 38 32 -1 304 -61 429 -36 72 -141 182 -228 235 -39 25 -107 57 -151 72 -70
24 -97 28 -225 31 -99 2 -166 -2 -210 -12z m332 -236 c140 -29 279 -129 311
-224 24 -68 22 -93 -5 -100 -13 -3 -232 -4 -487 -3 -538 3 -505 -4 -456 99 76
159 231 237 472 238 62 1 136 -4 165 -10z" />
        <path d="M7329 1955 c-319 -60 -531 -269 -579 -568 -15 -91 -8 -224 15 -312
48 -180 182 -337 363 -425 236 -115 584 -102 809 31 94 56 203 171 250 266 59
117 76 206 71 356 -4 98 -10 137 -31 200 -73 212 -256 378 -484 438 -103 27
-308 34 -414 14z m329 -240 c91 -22 197 -79 257 -138 166 -167 165 -445 -1
-611 -254 -254 -763 -186 -907 121 -59 126 -48 300 25 416 61 96 180 177 308
211 72 19 239 20 318 1z" />
        <path d="M10810 1955 c-183 -37 -337 -133 -435 -270 -88 -122 -125 -247 -125
-417 0 -340 194 -598 508 -675 100 -24 312 -21 417 6 110 29 252 101 318 161
30 28 58 50 62 50 12 0 -3 -137 -24 -215 -29 -115 -68 -191 -123 -240 -87 -78
-194 -115 -331 -115 -135 1 -233 27 -425 111 -52 23 -52 23 -71 4 -25 -28 -63
-137 -59 -171 3 -26 14 -35 98 -77 135 -67 223 -88 406 -94 121 -5 167 -2 230
12 201 43 359 165 448 345 80 165 79 148 83 888 3 491 1 657 -8 668 -15 18
-189 20 -207 2 -7 -7 -12 -40 -12 -80 0 -82 -8 -85 -77 -31 -72 55 -204 113
-307 134 -106 22 -268 24 -366 4z m389 -240 c306 -72 458 -383 317 -649 -85
-162 -252 -249 -476 -249 -238 0 -429 104 -513 280 -30 64 -32 75 -32 178 0
104 2 114 32 176 66 134 207 237 368 269 69 13 236 11 304 -5z" />
        <path d="M5050 1954 c-59 -12 -151 -47 -194 -75 -26 -16 -81 -61 -122 -100
-41 -39 -80 -69 -87 -66 -8 2 -13 35 -15 97 -1 52 -8 100 -14 107 -14 17 -189
18 -206 1 -17 -17 -17 -1299 0 -1316 16 -16 190 -16 206 0 9 9 12 100 12 348
0 199 4 361 11 396 41 226 291 403 516 365 172 -30 294 -141 322 -295 7 -36
11 -205 11 -426 0 -279 3 -370 13 -383 10 -15 27 -17 112 -15 l100 3 3 425 c3
479 -2 530 -63 656 -60 123 -182 223 -319 261 -53 14 -242 25 -286 17z" />
        <path d="M9214 1946 c-92 -21 -171 -66 -272 -155 -50 -45 -96 -81 -102 -81 -6
0 -10 35 -10 91 0 128 -1 129 -113 129 -59 0 -97 -4 -105 -12 -17 -17 -17
-1299 0 -1316 17 -17 192 -16 206 1 7 8 12 143 14 393 l3 379 34 69 c91 185
300 299 487 267 129 -23 245 -104 292 -203 35 -76 42 -159 42 -538 0 -263 3
-359 12 -368 18 -18 192 -16 207 2 9 11 11 124 8 453 -3 369 -6 448 -20 501
-28 105 -65 172 -136 243 -106 106 -208 147 -381 154 -69 3 -126 0 -166 -9z" />
        <path d="M16373 1946 c-109 -25 -188 -72 -300 -179 -84 -80 -93 -75 -93 47 0
114 -2 116 -119 116 -59 0 -84 -4 -95 -16 -14 -14 -16 -86 -16 -650 0 -419 4
-642 10 -655 9 -17 22 -19 103 -19 59 0 97 4 105 12 9 9 12 99 12 343 0 181 5
359 10 394 15 87 59 170 129 240 181 181 467 184 628 7 87 -95 86 -91 93 -564
4 -352 7 -414 20 -422 8 -5 54 -10 102 -10 130 0 121 -35 115 457 -5 454 -10
499 -72 629 -57 119 -176 216 -315 258 -77 24 -240 29 -317 12z" />
        <path d="M2070 1901 c-6 -13 -10 -236 -10 -655 0 -564 2 -636 16 -650 24 -25
185 -23 207 2 15 17 17 77 17 651 0 417 -4 639 -10 652 -10 17 -22 19 -110 19
-88 0 -100 -2 -110 -19z" />
    </g>
</svg>