<?xml version="1.0" standalone="no"?>
<!DOCTYPE svg PUBLIC "-//W3C//DTD SVG 20010904//EN"
 "http://www.w3.org/TR/2001/REC-SVG-20010904/DTD/svg10.dtd">
<svg version="1.0" xmlns="http://www.w3.org/2000/svg"
 width="216.000000pt" height="55.000000pt" viewBox="0 0 216.000000 55.000000"
 preserveAspectRatio="xMidYMid meet">

<g transform="translate(0.000000,55.000000) scale(0.100000,-0.100000)"
fill="#000000" stroke="none">
<path d="M1885 530 c-33 -13 -74 -63 -81 -98 -6 -31 -6 -32 31 -32 30 0 44 7
70 34 l32 35 34 -35 c26 -27 41 -34 71 -34 45 0 49 16 18 68 -37 60 -114 88
-175 62z"/>
<path d="M1720 368 c1 -34 33 -99 66 -132 126 -126 334 -57 370 123 6 31 6 31
-35 31 -36 0 -41 -3 -41 -22 0 -59 -71 -118 -140 -118 -64 0 -107 29 -133 91
-19 45 -24 49 -54 49 -28 0 -33 -4 -33 -22z"/>
<path d="M1907 358 l32 -31 29 31 30 32 -61 0 -62 0 32 -32z"/>
<path d="M0 185 l0 -185 120 0 120 0 0 30 0 30 -85 0 -85 0 0 155 0 155 -35 0
-35 0 0 -185z"/>
<path d="M280 185 l0 -185 35 0 35 0 0 70 0 70 61 0 c56 0 64 3 96 35 33 33
35 38 31 87 -4 42 -11 57 -37 80 -30 27 -36 28 -126 28 l-95 0 0 -185z m188
108 c17 -23 15 -68 -3 -83 -9 -7 -38 -15 -65 -18 l-50 -5 0 68 0 68 53 -6 c32
-4 57 -13 65 -24z"/>
<path d="M580 185 l0 -185 95 0 c120 0 160 15 181 67 19 45 6 106 -28 124 -19
10 -20 12 -4 21 26 15 36 51 25 92 -16 57 -38 66 -161 66 l-108 0 0 -185z
m199 120 c6 -3 11 -19 11 -35 0 -38 -26 -52 -93 -48 -51 3 -52 4 -55 36 -6 59
1 65 68 59 32 -3 63 -8 69 -12z m2 -145 c13 -7 19 -21 19 -45 0 -44 -20 -55
-99 -55 l-61 0 0 48 c0 27 3 52 7 55 10 11 112 8 134 -3z"/>
<path d="M1460 185 l0 -185 35 0 35 0 0 48 c0 34 5 54 18 65 17 16 20 13 50
-48 30 -62 34 -65 67 -65 l35 0 -40 80 c-22 44 -40 85 -40 91 0 6 16 30 36 52
l35 42 -33 3 c-29 3 -39 -2 -80 -49 l-48 -53 0 102 0 102 -35 0 -35 0 0 -185z"/>
<path d="M963 270 c-23 -10 -43 -39 -43 -64 0 -11 9 -16 30 -16 19 0 30 5 30
14 0 28 69 36 90 11 19 -23 5 -43 -37 -50 -101 -17 -123 -35 -123 -99 0 -44
29 -66 85 -66 22 0 51 7 63 16 20 14 22 14 22 0 0 -11 10 -16 30 -16 l30 0 0
109 c0 60 -3 117 -6 126 -15 38 -114 58 -171 35z m117 -160 c0 -42 -33 -72
-73 -68 -28 3 -32 7 -32 33 0 30 3 32 103 64 1 1 2 -12 2 -29z"/>
<path d="M1271 254 c-30 -25 -31 -25 -31 -5 0 17 -6 21 -30 21 l-30 0 0 -135
0 -135 35 0 35 0 0 99 c0 92 2 101 22 115 29 20 52 20 72 0 12 -12 16 -38 16
-115 l0 -99 30 0 30 0 0 115 c0 110 -1 117 -25 140 -33 34 -84 33 -124 -1z"/>
</g>
</svg>
