<?xml version="1.0" standalone="no"?>
<!DOCTYPE svg PUBLIC "-//W3C//DTD SVG 20010904//EN"
 "http://www.w3.org/TR/2001/REC-SVG-20010904/DTD/svg10.dtd">
<svg version="1.0" xmlns="http://www.w3.org/2000/svg"
 width="91.000000pt" height="38.000000pt" viewBox="0 0 91.000000 38.000000"
 preserveAspectRatio="xMidYMid meet">

<g transform="translate(0.000000,38.000000) scale(0.100000,-0.100000)"
fill="#000000" stroke="none">
<path d="M185 340 c-30 -58 -5 -72 33 -17 27 41 27 47 2 47 -11 0 -26 -12 -35
-30z"/>
<path d="M436 249 c-3 -34 -6 -88 -6 -120 0 -56 1 -59 25 -59 24 0 25 2 26 73
l1 72 26 -57 c34 -75 55 -77 86 -6 l23 51 6 -33 c4 -18 7 -48 7 -66 0 -30 3
-34 26 -34 l27 0 -7 112 c-4 62 -10 116 -12 120 -3 4 -16 8 -30 8 -21 0 -30
-10 -53 -60 l-27 -61 -29 61 c-24 51 -33 60 -55 60 -26 0 -27 -3 -34 -61z"/>
<path d="M720 190 l0 -120 60 0 c103 0 149 44 116 108 -10 20 -11 33 -4 46 14
25 -5 64 -38 76 -14 6 -50 10 -80 10 l-54 0 0 -120z m115 50 c0 -10 -12 -16
-32 -18 -28 -3 -33 0 -33 18 0 18 5 21 33 18 20 -2 32 -8 32 -18z m10 -82 c13
-13 -21 -38 -52 -38 -18 0 -23 6 -23 24 0 13 6 27 13 29 15 6 48 -2 62 -15z"/>
<path d="M10 286 c0 -20 39 -66 56 -66 19 0 18 12 -3 49 -18 31 -53 43 -53 17z"/>
<path d="M214 255 c-7 -50 -3 -61 21 -51 12 4 15 17 13 48 -4 58 -25 60 -34 3z"/>
<path d="M80 277 c0 -13 53 -37 83 -37 32 0 17 29 -20 39 -50 14 -63 14 -63
-2z"/>
<path d="M270 218 c0 -16 40 -38 70 -38 11 0 20 6 20 14 0 19 -7 23 -53 31
-29 6 -37 4 -37 -7z"/>
<path d="M94 212 c-11 -7 -44 -65 -44 -77 0 -17 31 0 54 30 31 41 25 70 -10
47z"/>
<path d="M275 175 c-5 -2 -22 -6 -37 -9 -19 -4 -28 -13 -28 -26 0 -11 2 -20 5
-20 15 0 85 33 85 40 0 11 -12 18 -25 15z"/>
<path d="M127 144 c-14 -15 34 -84 60 -84 19 0 16 10 -12 53 -25 36 -36 43
-48 31z"/>
<path d="M85 115 c-5 -2 -22 -6 -37 -9 -19 -4 -28 -13 -28 -26 0 -11 4 -20 9
-20 18 0 81 31 81 40 0 11 -12 18 -25 15z"/>
<path d="M214 66 c-7 -39 0 -56 22 -56 10 0 14 12 14 45 0 56 -26 64 -36 11z"/>
</g>
</svg>
