<?xml version="1.0" encoding="UTF-8"?>
<!-- Generator: Adobe Illustrator 28.0.0, SVG Export Plug-In . SVG Version: 6.00 Build 0)  -->
<svg version="1.1" id="Layer_1" xmlns="http://www.w3.org/2000/svg" xmlns:xlink="http://www.w3.org/1999/xlink" x="0px" y="0px" viewBox="0 0 500 79.4" style="enable-background:new 0 0 500 79.4;" xml:space="preserve">
<style type="text/css">
	.st0{fill:#EB3300;}
	.st1{fill:#FF9425;}
	.st2{fill:#2774AE;}
	.st3{fill:#563D82;}
	.st4{fill:#808184;}
</style>
<g>
	<g>
		<path class="st0" d="M206.4,40.5c-3,11.7-2.9,20.7-1.6,25.8c0.5,1.8,1.2,4.1,0.4,5.2c-0.7,1-4.7,1.5-9.1-0.7    c-4.3-2.2-7.6-7.2-6.5-17.9c0.5-3.6,0.3-2.3,0.5-4.4c0.4-4.7-1-6.7-6.4-3.5c-5.4,3.2-12.2,7.5-23.6,19.7    c-4.8,5.1-7.8,9.7-10.8,9.8c-3,0.1-5.1-2-6-3.8c-2-4.2-1.1-8.6,1.3-17.7c2.4-9.1,3.4-11.5,0.1-11.5c-3.9,0-15.9,5.4-22.9,15.2    c-7.3,10.2-7.3,18.6-12.6,19c-2.1,0.2-4.5-1.4-5.8-4.4c-1.3-3,0-9.2,2.2-17.2c2.1-8,5.9-18.3,7.5-22.2c0.8-2,2.6-3.6,5.9-2.3    c2.7,1.1,5.7,4.4,4.8,8.9c2.9-2.5,10.4-7.3,18.6-10.5c7.5-3,15.8-4.2,18.9-0.3c3.1,3.9,2.5,9.7-0.4,16.8    c12.4-11.5,21.8-17.1,29.9-20.1c5.6-2.1,11.5-1.3,14.4,2.1C208.5,30.1,207.4,35.1,206.4,40.5"/>
		<path class="st1" d="M245.7,20.3c-17.3,0.5-32,13.5-32.6,28c-0.7,14.5,12.5,22.5,25.2,21.9c12.7-0.6,29-8.1,32.8-24    C275.5,27.8,259.5,19.8,245.7,20.3 M255.9,46c-2.9,7.9-12.3,12.2-19.3,11.5c-7.7-0.8-9.2-5.8-7.4-12.2c1.8-6.4,7.7-13.1,16.3-13.5    C253.2,31.5,259.1,37.4,255.9,46"/>
		<path class="st2" d="M101.4,28.7c2.1,1.5-1.6,6.5-7.5,29.1c-2.2,8.5-2.5,12.4-2.4,15.1c0,2.7-2.4,3.8-5,4.1    c-2,0.2-4.7,0.1-6.2-0.8c-1.5-0.9-2.9-2.9-2.3-7.5c1.1-8.5,5.5-23.6,9.2-34c2-5.4,3.9-6.2,7.5-6.6C97.7,27.8,100,27.6,101.4,28.7     M104.5,12.8c-3.1,0-5.6,0.5-6.3,0.6c-2.6,0.4-3.9,1.2-5.2,4.7c-1.3,3.4-1.7,6.2,1.3,6.6c3,0.4,7.1,0.3,9.1-1.3    c2.1-1.6,2.9-4.8,3.6-6.9C107.7,14.3,107.6,12.8,104.5,12.8"/>
		<path class="st3" d="M69.5,28.1c-2.9,0.1-10.1,0.5-18.7,1.2c4-13.7,7.3-21.4,8.1-24c0.2-0.9,0.4-1.6,0.4-2.2c0-2.2-1.6-3-4.1-3.1    c-0.5,0-0.9,0-1.5,0c-4,0.2-9.1,2.2-12.1,10.4c-2.8,7.4-4.9,14.1-6.6,20c-13,1-25.4,2-29.3,2.3c-6.3,0.5-6.8,3.8-4.3,8.5    c2.5,4.7,7.9,5.4,16.6,4.7c3.6-0.3,8.3-0.7,13.5-1.2c-1.4,6.6-1.9,11.2-2.1,13.5c-0.1,0.7-0.1,1.3-0.2,2c0,0.6-0.1,1.3-0.1,1.9    c-0.2,8.5,2.7,13.9,6.5,15.8c3.8,2,7.4,1.8,8.7,1.1c0.2-0.1,0.3-0.2,0.4-0.3c0.2-0.3,0.3-0.6,0.3-1c0.1-1-0.3-2.3-0.6-3.5    c-0.1-0.2-0.1-0.5-0.1-0.7c-0.4-2.2-0.6-4.4-0.6-7c0-5.1,0.8-11.5,3-20.9c0.2-0.9,0.4-1.7,0.6-2.6c4.1-0.5,7.9-1,11.3-1.5    c9.6-1.5,25-5.7,25.7-9.1C84.9,28.9,78.4,27.9,69.5,28.1"/>
	</g>
	<g>
		<path class="st4" d="M314.1,29.6c0,2.8-0.8,5-2.4,6.5c-1.6,1.5-3.9,2.2-7,2.2h-4.8V21.2h5.4c2.8,0,5,0.7,6.5,2.2    C313.3,24.9,314.1,27,314.1,29.6 M310.3,29.7c0-3.7-1.6-5.5-4.9-5.5h-1.9v11.1h1.6C308.6,35.3,310.3,33.5,310.3,29.7"/>
		<rect x="320.6" y="21.2" class="st4" width="3.6" height="17.1"/>
		<path class="st4" d="M338.1,28.7h6.8v8.9c-1.1,0.4-2.1,0.6-3.1,0.8c-1,0.1-2,0.2-3,0.2c-2.6,0-4.6-0.8-5.9-2.3    c-1.4-1.5-2-3.7-2-6.5c0-2.8,0.8-4.9,2.4-6.5c1.6-1.5,3.8-2.3,6.6-2.3c1.8,0,3.5,0.4,5.1,1.1l-1.2,2.9c-1.2-0.6-2.5-0.9-3.9-0.9    c-1.6,0-2.8,0.5-3.8,1.6c-0.9,1.1-1.4,2.5-1.4,4.3c0,1.9,0.4,3.3,1.1,4.3c0.8,1,1.9,1.5,3.3,1.5c0.8,0,1.5-0.1,2.3-0.2v-3.6h-3.2    V28.7z"/>
		<rect x="351.9" y="21.2" class="st4" width="3.6" height="17.1"/>
		<polygon class="st4" points="369.5,38.3 365.8,38.3 365.8,24.2 361.2,24.2 361.2,21.2 374.1,21.2 374.1,24.2 369.5,24.2   "/>
		<path class="st4" d="M390.2,38.3l-1.2-4.1h-6.2l-1.2,4.1h-3.9l6-17.2h4.4l6.1,17.2H390.2z M388.1,31.2c-1.1-3.7-1.8-5.8-1.9-6.3    c-0.1-0.5-0.2-0.9-0.3-1.1c-0.3,1-1,3.5-2.2,7.4H388.1z"/>
		<polygon class="st4" points="399.3,38.3 399.3,21.2 402.9,21.2 402.9,35.3 409.9,35.3 409.9,38.3   "/>
		<path class="st4" d="M425.1,21.2h5.3c2.4,0,4.2,0.3,5.3,1c1.1,0.7,1.6,1.8,1.6,3.3c0,1-0.2,1.9-0.7,2.5c-0.5,0.7-1.1,1.1-1.9,1.2    v0.1c1.1,0.2,1.9,0.7,2.3,1.4c0.5,0.7,0.7,1.5,0.7,2.6c0,1.6-0.6,2.8-1.7,3.7c-1.1,0.9-2.7,1.3-4.6,1.3h-6.4V21.2z M428.7,28h2.1    c1,0,1.7-0.2,2.1-0.5c0.4-0.3,0.7-0.8,0.7-1.5c0-0.7-0.2-1.1-0.7-1.4c-0.5-0.3-1.2-0.4-2.3-0.4h-1.9V28z M428.7,30.9v4.5h2.4    c1,0,1.7-0.2,2.2-0.6c0.5-0.4,0.7-1,0.7-1.8c0-1.4-1-2.1-3-2.1H428.7z"/>
		<path class="st4" d="M454.7,38.3l-1.2-4.1h-6.2l-1.2,4.1H442l6-17.2h4.4l6.1,17.2H454.7z M452.6,31.2c-1.1-3.7-1.8-5.8-1.9-6.3    c-0.1-0.5-0.2-0.9-0.3-1.1c-0.3,1-1,3.5-2.2,7.4H452.6z"/>
		<path class="st4" d="M478.9,38.3h-4.6l-7.4-13h-0.1c0.1,2.3,0.2,3.9,0.2,4.9v8.1h-3.2V21.2h4.6l7.4,12.8h0.1    c-0.1-2.2-0.2-3.8-0.2-4.7v-8.1h3.3V38.3z"/>
		<polygon class="st4" points="500,38.3 495.9,38.3 491.4,31.1 489.9,32.2 489.9,38.3 486.2,38.3 486.2,21.2 489.9,21.2 489.9,29.1     491.3,27 495.9,21.2 500,21.2 494,28.8   "/>
		<g>
			<g>
				<path class="st4" d="M306,53.8c1.5,0,2.7,0.5,3.5,1.6c0.8,1.1,1.3,2.6,1.3,4.6c0,2-0.4,3.5-1.3,4.6c-0.8,1.1-2,1.6-3.5,1.6      c-1.5,0-2.7-0.5-3.5-1.6h-0.2l-0.5,1.4h-1.9V49.1h2.5v4c0,0.3,0,0.7,0,1.3c0,0.6-0.1,1-0.1,1.1h0.1      C303.2,54.3,304.4,53.8,306,53.8z M305.3,55.8c-1,0-1.8,0.3-2.2,0.9c-0.5,0.6-0.7,1.6-0.7,3v0.2c0,1.5,0.2,2.5,0.7,3.2      c0.5,0.7,1.2,1,2.3,1c0.9,0,1.6-0.4,2.1-1.1c0.5-0.7,0.7-1.7,0.7-3.1C308.1,57.2,307.2,55.8,305.3,55.8z"/>
				<path class="st4" d="M311.9,54h2.8l2.4,6.8c0.4,1,0.6,1.9,0.7,2.7h0.1c0.1-0.4,0.2-0.9,0.4-1.4c0.2-0.6,1.1-3.3,2.8-8.1h2.8      l-5.1,13.6c-0.9,2.5-2.5,3.7-4.7,3.7c-0.6,0-1.1-0.1-1.6-0.2v-2c0.4,0.1,0.8,0.1,1.3,0.1c1.2,0,2.1-0.7,2.6-2.1l0.4-1.1      L311.9,54z"/>
			</g>
			<g id="Font_00000150064543247147171890000001571344341657343880_">
				<path class="st4" d="M346.1,58.7c-0.6-0.7-1.5-1.2-2.3-1.5c0.6-0.3,1.1-0.7,1.5-1.3c0.4-0.6,0.6-1.3,0.6-2.1      c0-3.1-1.8-4.7-5.5-4.7h-6.4c-0.2,0-0.4,0.1-0.5,0.2c-0.1,0.1-0.2,0.3-0.2,0.5v15.5c0,0.2,0.1,0.4,0.2,0.5      c0.1,0.1,0.3,0.2,0.5,0.2h6.6c1.8,0,3.5-0.4,4.6-1.2c1.1-0.8,1.6-2,1.6-3.7C346.9,60.2,346.7,59.4,346.1,58.7z M336.8,52.4h3.6      c0.5,0,0.8,0.2,1.2,0.5s0.5,0.7,0.5,1.1c0,0.5-0.1,0.9-0.4,1.3s-0.7,0.5-1.2,0.5h-3.6V52.4z M343.1,62.1      c-0.3,0.3-0.7,0.5-1.2,0.5h-5.1v-3.4h5.1c0.5,0,0.8,0.2,1.2,0.5s0.5,0.7,0.5,1.1C343.5,61.3,343.4,61.7,343.1,62.1z"/>
				<path class="st4" d="M380,58.7c-0.6-0.7-1.5-1.2-2.3-1.5c0.6-0.3,1.1-0.7,1.5-1.3c0.4-0.6,0.6-1.3,0.6-2.1      c0-3.1-1.8-4.7-5.5-4.7H368c-0.2,0-0.4,0.1-0.5,0.2c-0.1,0.1-0.2,0.3-0.2,0.5v15.5c0,0.2,0.1,0.4,0.2,0.5s0.3,0.2,0.5,0.2h6.6      c1.8,0,3.5-0.4,4.6-1.2c1.1-0.8,1.6-2,1.6-3.7C380.8,60.3,380.5,59.4,380,58.7L380,58.7z M370.6,52.5h3.6c0.5,0,0.8,0.2,1.2,0.5      c0.3,0.3,0.5,0.7,0.5,1.1c0,0.5-0.1,0.9-0.4,1.3c-0.3,0.3-0.7,0.5-1.2,0.5h-3.6C370.6,55.8,370.6,52.5,370.6,52.5z M377,62.1      c-0.3,0.3-0.7,0.5-1.2,0.5h-5.1v-3.4h5.1c0.5,0,0.8,0.2,1.2,0.5c0.3,0.3,0.5,0.7,0.5,1.1C377.4,61.3,377.3,61.7,377,62.1z"/>
				<path class="st4" d="M387,66c0.6,0,1.1-0.1,1.6-0.3c0,0,0.1,0,0.1,0c0.5-0.2,0.8-0.5,1.1-0.9L387,66L387,66z M392.2,55.9h-2      c-0.2,0-0.4,0.2-0.4,0.4v0.8h0c-0.3-0.5-0.7-0.7-1.2-0.9c-0.5-0.2-1-0.3-1.6-0.3c-1.4,0-2.5,0.5-3.4,1.6c-0.9,1-1.1,1.9-1.1,3.5      c0,1.5,0.3,2.4,1.1,3.5c0.8,1.1,2,1.6,3.5,1.6c0.6,0,1.1-0.1,1.6-0.3c0,0,0.1,0,0.1,0c0.5-0.2,0.9-0.5,1.1-0.9h0v0.8      c0,0.2,0.2,0.4,0.4,0.4h2c0.2,0,0.4-0.2,0.4-0.4v-9.2C392.6,56.1,392.4,55.9,392.2,55.9L392.2,55.9z M389.1,62.8      c-0.4,0.5-1,0.7-1.7,0.7c-0.7,0-1.2-0.2-1.7-0.7c-0.5-0.5-0.7-1.1-0.7-1.8s0.2-1.4,0.6-1.9c0.4-0.5,1-0.8,1.7-0.8      c0.7,0,1.3,0.2,1.7,0.7s0.7,1.1,0.7,1.9C389.7,61.7,389.5,62.3,389.1,62.8L389.1,62.8z"/>
				<path class="st4" d="M404.2,58.3c-0.2-0.6-0.6-1.1-1-1.5c-0.8-0.6-1.7-0.9-2.8-0.9c-1.4,0-2.2,0.3-3,1.3h0v-0.8      c0-0.2-0.2-0.4-0.5-0.4h-2.1c-0.3,0-0.5,0.2-0.5,0.4v9.2c0,0.2,0.2,0.4,0.5,0.4h2.3c0.3,0,0.5-0.2,0.5-0.4V61      c0-0.7,0.4-1.3,0.6-1.7c0.2-0.3,0.6-0.9,1.4-0.9c0.7,0,1,0.2,1.3,0.6c0.2,0.3,0.3,0.8,0.3,1.5v5.1c0,0.2,0.2,0.4,0.5,0.4h2.3      c0.3,0,0.5-0.2,0.5-0.4v-5.5C404.4,59.4,404.4,58.8,404.2,58.3L404.2,58.3z"/>
				<path class="st4" d="M414.5,65.3l-2.9-4.5c-0.1-0.2-0.1-0.4,0-0.5l2.8-3.8c0.2-0.3,0-0.7-0.3-0.7h-2.3c-0.1,0-0.2,0.1-0.3,0.2      l-2.6,3.8h0v-7c0-0.2-0.2-0.4-0.4-0.4h-2c-0.2,0-0.4,0.2-0.4,0.4v12.7c0,0.2,0.2,0.4,0.4,0.4h2c0.2,0,0.4-0.2,0.4-0.4v-4.2h0      l2.6,4.4c0.1,0.1,0.2,0.2,0.4,0.2h2.2C414.5,66,414.7,65.6,414.5,65.3L414.5,65.3z"/>
				<path class="st4" d="M363.9,49.1h-2.6c-0.4,0-0.7,0.2-0.9,0.5l-4.4,9.4l-4.4-9.4c-0.2-0.4-0.4-0.5-0.9-0.5h-2.6      c-0.4,0-0.6,0.2-0.6,0.5c0,0.1,0,0.2,0.1,0.4l4.1,8.5l3.2,6.8c0.4,0.9,1.6,0.9,2.1,0l3.3-6.9l4.1-8.5c0.1-0.1,0.1-0.2,0.1-0.4      C364.5,49.3,364.3,49.1,363.9,49.1z"/>
				<path class="st4" d="M419.7,51.4l-3.1,5.5c-0.2-0.2-0.3-0.4-0.3-0.7v-9.6c0-0.3,0.1-0.5,0.3-0.7L419.7,51.4z"/>
				<path class="st4" d="M420.2,51.7h6.3c-0.1,0.2-0.2,0.4-0.4,0.6l-8.3,4.8c-0.2,0.1-0.5,0.2-0.7,0.1L420.2,51.7L420.2,51.7z"/>
				<path class="st4" d="M420.3,51.2l-3.2-5.5c0.2-0.1,0.5-0.1,0.7,0.1l8.3,4.8c0.2,0.1,0.4,0.3,0.4,0.6L420.3,51.2L420.3,51.2z"/>
			</g>
		</g>
	</g>
</g>
</svg>