<?xml version="1.0" standalone="no"?>
<!DOCTYPE svg PUBLIC "-//W3C//DTD SVG 20010904//EN"
 "http://www.w3.org/TR/2001/REC-SVG-20010904/DTD/svg10.dtd">
<svg version="1.0" xmlns="http://www.w3.org/2000/svg"
 width="365.000000pt" height="124.000000pt" viewBox="0 0 365.000000 124.000000"
 preserveAspectRatio="xMidYMid meet">

<g transform="translate(0.000000,124.000000) scale(0.100000,-0.100000)"
fill="#000000" stroke="none">
<path d="M2782 1230 c-82 -9 -106 -30 -99 -86 2 -23 17 -68 33 -100 l30 -59
109 3 c66 3 115 9 122 16 17 16 30 196 14 196 -6 0 -11 6 -11 14 0 26 -65 31
-198 16z"/>
<path d="M3245 1107 c0 -40 -9 -71 -42 -139 -70 -145 -163 -268 -203 -268 -21
0 -109 77 -159 140 -27 33 -42 44 -58 42 -15 -2 -23 -10 -23 -23 0 -12 -7 -19
-20 -19 -17 0 -20 -7 -20 -40 0 -33 -3 -40 -20 -40 -13 0 -20 -7 -20 -20 0
-13 -7 -20 -20 -20 -15 0 -20 -7 -20 -25 0 -18 23 -49 76 -105 121 -126 201
-168 261 -136 117 60 303 462 291 628 -6 76 -23 95 -23 25z"/>
<path d="M2340 251 c0 -141 4 -222 10 -226 22 -14 157 -17 194 -5 58 19 85 97
71 208 -9 75 -45 112 -107 112 -24 0 -54 -7 -66 -16 l-22 -15 0 80 0 81 -40 0
-40 0 0 -219z m178 -3 c15 -15 16 -112 2 -139 -8 -14 -21 -19 -55 -19 l-45 0
0 85 0 85 43 0 c24 0 48 -5 55 -12z"/>
<path d="M3322 243 l3 -228 43 -3 42 -3 0 73 c1 71 1 72 18 49 9 -13 37 -45
61 -72 42 -47 46 -49 98 -49 l53 0 -53 54 c-29 30 -61 70 -72 89 l-19 35 50
57 c27 32 57 68 67 81 l19 24 -49 0 c-47 0 -50 -2 -110 -67 l-62 -68 -1 128 0
127 -45 0 -45 0 2 -227z"/>
<path d="M13 401 c14 -130 114 -373 160 -385 39 -10 92 -6 114 9 47 33 132
250 148 379 8 62 6 64 -64 50 -26 -5 -31 -12 -37 -43 -15 -94 -66 -244 -95
-283 -17 -22 -17 -21 -42 28 -26 52 -72 194 -82 255 -5 31 -10 38 -36 43 -70
14 -72 12 -66 -53z"/>
<path d="M990 380 c0 -36 -2 -40 -25 -40 -22 0 -25 -4 -25 -40 0 -36 3 -40 24
-40 24 0 24 -2 28 -106 3 -97 5 -107 27 -125 23 -19 66 -24 109 -13 17 5 22
14 22 40 0 32 -2 34 -35 34 l-35 0 0 85 0 85 35 0 c34 0 35 1 35 40 0 39 -1
40 -35 40 -34 0 -35 1 -35 40 l0 40 -45 0 -45 0 0 -40z"/>
<path d="M470 175 l0 -165 45 0 45 0 0 165 0 165 -45 0 -45 0 0 -165z"/>
<path d="M658 311 c-32 -28 -33 -32 -36 -119 -6 -138 30 -182 146 -182 104 0
131 15 118 64 -6 24 -8 24 -79 19 -60 -5 -76 -3 -90 11 -21 22 -24 64 -3 47 9
-8 46 -11 103 -9 84 3 88 4 91 27 8 51 -9 114 -38 143 -26 26 -34 28 -104 28
-69 0 -78 -2 -108 -29z m136 -51 c16 -6 26 -17 26 -30 0 -18 -6 -20 -53 -20
-30 0 -56 3 -59 6 -12 11 5 43 26 47 11 2 24 5 28 6 4 0 18 -3 32 -9z"/>
<path d="M1242 325 c-37 -27 -52 -68 -52 -145 0 -137 39 -176 172 -168 43 3
81 7 84 10 3 3 2 22 -1 41 l-7 34 -67 -5 c-55 -4 -69 -1 -81 13 -20 24 -19
133 1 146 8 6 44 8 81 7 l66 -4 6 35 c3 19 3 37 0 40 -3 4 -45 7 -92 9 -68 3
-92 0 -110 -13z"/>
<path d="M1538 324 c-36 -19 -52 -78 -46 -171 8 -115 37 -143 149 -143 111 0
139 34 139 167 0 88 -19 139 -55 153 -39 15 -156 12 -187 -6z m127 -64 c25
-10 26 -12 23 -87 l-3 -78 -50 0 -50 0 -3 78 c-3 73 -1 78 20 87 30 12 32 12
63 0z"/>
<path d="M1832 178 l3 -163 43 -3 42 -3 0 125 0 126 44 0 c31 0 46 -5 50 -16
3 -9 6 -65 6 -125 l0 -109 40 0 40 0 0 126 0 125 48 -3 47 -3 3 -122 3 -123
39 0 40 0 0 140 c0 136 -1 142 -25 165 -20 21 -34 25 -81 25 -39 0 -63 -5 -75
-16 -16 -15 -20 -15 -41 0 -26 19 -109 21 -126 4 -9 -9 -15 -9 -24 0 -7 7 -27
12 -45 12 l-33 0 2 -162z"/>
<path d="M2700 331 c-14 -4 -25 -12 -24 -19 1 -7 2 -23 3 -35 1 -23 4 -24 88
-23 60 1 87 -3 90 -11 3 -10 -12 -13 -55 -13 -70 0 -119 -15 -132 -40 -17 -33
-12 -125 9 -151 24 -30 128 -40 166 -15 23 15 25 15 25 1 0 -13 9 -15 38 -13
l37 3 3 117 c3 134 -10 182 -53 198 -29 11 -156 12 -195 1z m158 -208 c-3 -26
-7 -28 -56 -31 -40 -2 -54 1 -58 12 -13 34 3 46 61 46 56 0 56 0 53 -27z"/>
<path d="M3000 175 l0 -165 40 0 40 0 0 126 0 125 53 -3 52 -3 3 -123 3 -122
39 0 40 0 0 140 c0 136 -1 142 -25 165 -19 20 -34 25 -75 25 -28 0 -61 -5 -73
-11 -16 -9 -22 -9 -25 0 -2 6 -19 11 -38 11 l-34 0 0 -165z"/>
</g>
</svg>
