<?xml version="1.0" standalone="no"?>
<!DOCTYPE svg PUBLIC "-//W3C//DTD SVG 20010904//EN"
 "http://www.w3.org/TR/2001/REC-SVG-20010904/DTD/svg10.dtd">
<svg version="1.0" xmlns="http://www.w3.org/2000/svg"
 width="140.000000pt" height="35.000000pt" viewBox="0 0 140.000000 35.000000"
 preserveAspectRatio="xMidYMid meet">

<g transform="translate(0.000000,35.000000) scale(0.100000,-0.100000)"
fill="#000000" stroke="none">
<path d="M110 278 c0 -52 3 -61 40 -103 l40 -46 0 61 c0 57 -2 63 -40 103
l-39 42 -1 -57z"/>
<path d="M233 290 c-30 -34 -33 -44 -33 -100 l0 -62 40 48 c35 43 40 55 40
101 0 29 -3 53 -7 52 -5 0 -23 -18 -40 -39z"/>
<path d="M10 214 c0 -11 161 -194 171 -194 5 0 9 20 9 45 0 41 -5 50 -53 100
-46 47 -58 55 -90 55 -20 0 -37 -3 -37 -6z"/>
<path d="M297 209 c-9 -6 -35 -29 -57 -52 -35 -37 -40 -48 -40 -90 0 -39 3
-46 14 -40 15 8 166 181 166 189 0 8 -66 3 -83 -7z"/>
<path d="M1290 130 c-12 -17 -20 -40 -18 -52 3 -19 8 -16 46 30 43 51 43 52
19 52 -17 0 -33 -10 -47 -30z"/>
</g>
</svg>
